<svg width="25" height="20" viewBox="0 0 25 20" fill="none" xmlns="http://www.w3.org/2000/svg">
<path d="M2.34375 0.521118C1.0498 0.521118 0 1.58098 0 2.88732C0 3.63168 0.34668 4.33168 0.9375 4.78027L11.5625 12.8253C12.1191 13.2444 12.8809 13.2444 13.4375 12.8253L24.0625 4.78027C24.6533 4.33168 25 3.63168 25 2.88732C25 1.58098 23.9502 0.521118 22.6562 0.521118H2.34375ZM0 6.04224V16.2958C0 18.0359 1.40137 19.4507 3.125 19.4507H21.875C23.5986 19.4507 25 18.0359 25 16.2958V6.04224L14.375 14.0873C13.2617 14.9303 11.7383 14.9303 10.625 14.0873L0 6.04224Z" fill="white"/>
</svg>
