<svg width="25" height="23" viewBox="0 0 25 23" fill="none" xmlns="http://www.w3.org/2000/svg">
<path d="M5.85642 0.562251L5.85661 0.562204C6.57343 0.38568 7.28035 0.707438 7.56664 1.24513L7.59754 1.31198L9.55058 5.53715L9.55068 5.53736C9.77585 6.0239 9.63301 6.60035 9.14146 6.96259C9.14145 6.9626 9.14145 6.9626 9.14144 6.96261L6.73434 8.73628L6.3887 8.99097L6.58819 9.37114C8.27142 12.5788 11.1456 15.164 14.6812 16.6715L15.0081 16.8109L15.2472 16.5479L17.2198 14.3781L17.2217 14.376C17.6165 13.9367 18.3177 13.7673 18.9345 13.9992L18.9347 13.9993L23.622 15.7598L23.623 15.7602C24.3164 16.0189 24.6246 16.6636 24.452 17.2329L24.452 17.2331L23.2806 21.1046C23.2805 21.1049 23.2805 21.1051 23.2804 21.1054C23.1179 21.6348 22.5611 22.0493 21.874 22.0493C10.0205 22.0493 0.5 13.3968 0.5 2.83187C0.5 2.30245 0.900412 1.78275 1.56042 1.61837C1.56062 1.61832 1.56082 1.61827 1.56102 1.61822L5.85642 0.562251Z" fill="#FAFAFA" stroke="black"/>
</svg>
