<svg width="25" height="24" viewBox="0 0 25 24" fill="none" xmlns="http://www.w3.org/2000/svg">
<path d="M12.5028 6.20818C8.95566 6.20818 6.09453 8.7878 6.09453 11.9859C6.09453 15.1841 8.95566 17.7637 12.5028 17.7637C16.0499 17.7637 18.911 15.1841 18.911 11.9859C18.911 8.7878 16.0499 6.20818 12.5028 6.20818ZM12.5028 15.7422C10.2105 15.7422 8.33659 14.0577 8.33659 11.9859C8.33659 9.91419 10.205 8.22964 12.5028 8.22964C14.8006 8.22964 16.669 9.91419 16.669 11.9859C16.669 14.0577 14.795 15.7422 12.5028 15.7422V15.7422ZM20.6679 5.97185C20.6679 6.72109 19.9986 7.31948 19.1732 7.31948C18.3422 7.31948 17.6785 6.71606 17.6785 5.97185C17.6785 5.22763 18.3477 4.62421 19.1732 4.62421C19.9986 4.62421 20.6679 5.22763 20.6679 5.97185ZM24.9122 7.3396C24.8173 5.53437 24.36 3.9353 22.8932 2.61784C21.432 1.30037 19.6584 0.888035 17.6562 0.797522C15.5926 0.691923 9.40742 0.691923 7.34384 0.797522C5.34718 0.883006 3.57362 1.29534 2.1068 2.61281C0.639989 3.93028 0.188232 5.52934 0.0878416 7.33457C-0.0292805 9.19511 -0.0292805 14.7717 0.0878416 16.6323C0.182655 18.4375 0.639989 20.0366 2.1068 21.354C3.57362 22.6715 5.34161 23.0838 7.34384 23.1743C9.40742 23.2799 15.5926 23.2799 17.6562 23.1743C19.6584 23.0888 21.432 22.6765 22.8932 21.354C24.3544 20.0366 24.8118 18.4375 24.9122 16.6323C25.0293 14.7717 25.0293 9.20014 24.9122 7.3396V7.3396ZM22.2462 18.6286C21.8112 19.6142 20.969 20.3735 19.8703 20.7707C18.225 21.359 14.321 21.2233 12.5028 21.2233C10.6846 21.2233 6.77496 21.354 5.13525 20.7707C4.04211 20.3785 3.19994 19.6192 2.75934 18.6286C2.1068 17.1452 2.25739 13.6252 2.25739 11.9859C2.25739 10.3466 2.11238 6.82166 2.75934 5.34328C3.19437 4.3577 4.03653 3.59839 5.13525 3.20114C6.78054 2.61281 10.6846 2.74858 12.5028 2.74858C14.321 2.74858 18.2306 2.61784 19.8703 3.20114C20.9635 3.59337 21.8056 4.35267 22.2462 5.34328C22.8988 6.82669 22.7482 10.3466 22.7482 11.9859C22.7482 13.6252 22.8988 17.1502 22.2462 18.6286Z" fill="white"/>
</svg>
