<svg width="25" height="24" viewBox="0 0 25 24" fill="none" xmlns="http://www.w3.org/2000/svg">
<path d="M17.9717 14.957L17.6734 15.3254L18.0254 15.6429L24.2073 21.2187L24.2075 21.2188C24.5975 21.5703 24.5975 22.118 24.2075 22.4695C23.7873 22.8482 23.0851 22.8482 22.6649 22.4695L16.4831 16.8939L16.1957 16.6347L15.8728 16.8479C14.2754 17.9025 12.3009 18.5255 10.1567 18.5255C4.77208 18.5255 0.5 14.6046 0.5 9.87188C0.5 5.13919 4.77208 1.21829 10.1567 1.21829C15.5414 1.21829 19.8135 5.13919 19.8135 9.87188C19.8135 11.7681 19.1312 13.5248 17.9717 14.957ZM10.1567 16.709C14.2647 16.709 17.6883 13.6943 17.6883 9.87188C17.6883 6.04949 14.2647 3.03478 10.1567 3.03478C6.04876 3.03478 2.62515 6.04949 2.62515 9.87188C2.62515 13.6943 6.04876 16.709 10.1567 16.709Z" fill="#1B1426" stroke="#F9AA01"/>
</svg>
