<svg width="25" height="24" viewBox="0 0 25 24" fill="none" xmlns="http://www.w3.org/2000/svg">
<path d="M16.0714 8.26055H16.5714V7.76055V5.64787C16.5714 3.71395 14.6289 2.33097 12.5 2.33097C10.3711 2.33097 8.42857 3.71395 8.42857 5.64787V7.76055V8.26055H8.92857H16.0714ZM6.25 8.26055H6.75V7.76055V5.64787C6.75 3.30362 9.20481 1.21829 12.5 1.21829C15.7952 1.21829 18.25 3.30362 18.25 5.64787V7.76055V8.26055H18.75H22.3214C23.6412 8.26055 24.5 9.08707 24.5 9.87322V19.0282C24.5 20.9807 22.4414 22.7535 19.6429 22.7535H5.35714C2.5586 22.7535 0.5 20.9807 0.5 19.0282V9.87322C0.5 9.08707 1.35882 8.26055 2.67857 8.26055H6.25ZM5.75 10.9296C5.75 11.8952 6.68805 12.4859 7.58929 12.4859C8.49052 12.4859 9.42857 11.8952 9.42857 10.9296C9.42857 9.96395 8.49052 9.37322 7.58929 9.37322C6.68805 9.37322 5.75 9.96395 5.75 10.9296ZM17.4107 12.4859C18.3119 12.4859 19.25 11.8952 19.25 10.9296C19.25 9.96395 18.3119 9.37322 17.4107 9.37322C16.5095 9.37322 15.5714 9.96395 15.5714 10.9296C15.5714 11.8952 16.5095 12.4859 17.4107 12.4859Z" fill="#1B1426" stroke="#F9AA01"/>
</svg>
