<svg width="25" height="24" viewBox="0 0 25 24" fill="none" xmlns="http://www.w3.org/2000/svg">
<path d="M23.2143 0.718323H1.78013C0.797991 0.718323 0 1.4477 0 2.34307V21.6288C0 22.5242 0.797991 23.2535 1.78013 23.2535H23.2143C24.1964 23.2535 25 22.5242 25 21.6288V2.34307C25 1.4477 24.1964 0.718323 23.2143 0.718323ZM7.5558 20.0342H3.85045V9.27969H7.56138V20.0342H7.5558ZM5.70312 7.81088C4.51451 7.81088 3.55469 6.94066 3.55469 5.87426C3.55469 4.80786 4.51451 3.93764 5.70312 3.93764C6.88616 3.93764 7.85156 4.80786 7.85156 5.87426C7.85156 6.94569 6.89174 7.81088 5.70312 7.81088V7.81088ZM21.4453 20.0342H17.74V14.8028C17.74 13.5553 17.7121 11.9507 15.8147 11.9507C13.8839 11.9507 13.5882 13.3089 13.5882 14.7123V20.0342H9.88281V9.27969H13.4375V10.7485H13.4877C13.9844 9.90343 15.1953 9.01309 16.9978 9.01309C20.7478 9.01309 21.4453 11.2415 21.4453 14.1388V20.0342V20.0342Z" fill="white"/>
</svg>
